<svg version="1.1" id="Layer_1" xmlns="http://www.w3.org/2000/svg" xmlns:xlink="http://www.w3.org/1999/xlink" x="0px" y="0px"
	 width="100%" viewBox="0 0 256 256" enable-background="new 0 0 256 256" xml:space="preserve">
<path fill="#36D3FC" opacity="1.000000" stroke="none" 
	d="
M257.000000,137.000000 
	C257.000000,167.687561 257.000000,198.375122 256.719208,229.204620 
	C256.050201,229.660004 255.448166,229.897034 255.304825,230.298019 
	C250.994919,242.353470 242.908936,250.644745 230.873459,255.103439 
	C230.411499,255.274582 230.283585,256.347382 230.000000,257.000000 
	C192.645767,257.000000 155.291550,257.000000 117.487503,256.642853 
	C119.358498,253.911926 121.679306,251.538147 124.463715,249.091064 
	C154.860214,249.011627 184.793091,249.011841 214.725983,248.997223 
	C235.741043,248.986954 248.961349,235.786774 249.001373,214.820633 
	C249.048965,189.880432 249.110855,164.940247 249.524963,139.983643 
	C252.255569,138.978165 254.627792,137.989090 257.000000,137.000000 
z"/>
<path fill="#1DD6F8" opacity="1.000000" stroke="none" 
	d="
M28.000000,1.000000 
	C57.020893,1.000000 86.041786,1.000000 115.472023,1.340734 
	C113.588081,4.065932 111.294800,6.450396 108.537903,8.908919 
	C85.815826,8.989199 63.557159,8.937831 41.298981,9.019562 
	C22.958115,9.086907 9.169409,22.852549 9.007380,41.110256 
	C8.921917,50.740292 8.890303,60.370808 8.466360,70.019966 
	C5.732229,70.692551 3.366115,71.346275 1.000000,72.000000 
	C1.000000,57.645771 1.000000,43.291542 1.281538,28.794170 
	C1.950546,28.336655 2.551145,28.098381 2.694515,27.696850 
	C6.999501,15.640080 15.091022,7.357606 27.120388,2.896227 
	C27.584215,2.724206 27.714365,1.652485 28.000000,1.000000 
z"/>
<path fill="#34D3FC" opacity="1.000000" stroke="none" 
	d="
M124.000122,249.164368 
	C121.679306,251.538147 119.358498,253.911926 117.018845,256.642853 
	C87.645775,257.000000 58.291542,257.000000 28.795483,256.719482 
	C24.436434,253.904602 20.219217,251.370209 15.981606,248.458954 
	C14.995385,244.834351 14.238424,241.647125 18.640003,240.000702 
	C25.373062,246.386627 33.110176,249.049973 42.037701,249.035568 
	C69.358368,248.991440 96.679298,249.109436 124.000122,249.164368 
z"/>
<path fill="#31D4FC" opacity="1.000000" stroke="none" 
	d="
M257.000000,136.531342 
	C254.627792,137.989090 252.255569,138.978165 249.451355,139.520081 
	C249.067352,106.382790 249.115372,73.692657 249.530426,40.983906 
	C252.264984,40.976860 254.632492,40.988430 257.000000,41.000000 
	C257.000000,72.687561 257.000000,104.375122 257.000000,136.531342 
z"/>
<path fill="#2AD3F9" opacity="1.000000" stroke="none" 
	d="
M257.000000,40.536816 
	C254.632492,40.988430 252.264984,40.976860 249.448212,40.565376 
	C248.104630,21.975159 234.629379,9.115517 216.341583,9.003038 
	C206.894165,8.944932 197.446701,8.891349 188.067505,8.507430 
	C190.090485,5.786090 192.045242,3.393044 194.000000,0.999999 
	C205.687561,1.000000 217.375122,1.000000 229.205566,1.281368 
	C229.662598,1.950324 229.900574,2.551154 230.301941,2.694519 
	C242.358200,7.000853 250.644318,15.089718 255.104736,27.121284 
	C255.276535,27.584705 256.347839,27.714657 257.000000,28.000000 
	C257.000000,32.024544 257.000000,36.049088 257.000000,40.536816 
z"/>
<path fill="#23D6FA" opacity="1.000000" stroke="none" 
	d="
M193.531342,0.999999 
	C192.045242,3.393044 190.090485,5.786090 187.603882,8.580322 
	C161.048523,8.932626 135.025024,8.883743 109.001518,8.834860 
	C111.294800,6.450396 113.588081,4.065932 115.940681,1.340734 
	C141.687561,1.000000 167.375122,1.000000 193.531342,0.999999 
z"/>
<path fill="#2FD3FB" opacity="1.000000" stroke="none" 
	d="
M18.340759,239.867493 
	C14.238424,241.647125 14.995385,244.834351 15.645266,248.446442 
	C11.319529,243.107956 7.336328,237.385971 3.267514,231.725555 
	C2.737414,230.988113 1.766652,230.567413 1.000002,230.000000 
	C1.000000,213.312439 1.000000,196.624878 1.383173,179.465744 
	C4.123024,178.329727 6.479702,177.665298 8.909132,177.464493 
	C8.988318,189.756409 9.307317,201.595306 8.906403,213.409775 
	C8.559725,223.625992 11.377197,232.408676 18.340759,239.867493 
z"/>
<path fill="#2AD3F9" opacity="1.000000" stroke="none" 
	d="
M8.836378,177.000854 
	C6.479702,177.665298 4.123024,178.329727 1.383173,178.997086 
	C1.000000,158.979111 1.000000,138.958206 1.351297,118.412521 
	C4.080382,116.924889 6.458170,115.962051 8.909545,115.462822 
	C8.934214,136.284561 8.885296,156.642715 8.836378,177.000854 
z"/>
<path fill="#23D6FA" opacity="1.000000" stroke="none" 
	d="
M8.835958,114.999222 
	C6.458170,115.962051 4.080382,116.924889 1.351297,117.943863 
	C1.000000,102.979103 1.000000,87.958214 1.000000,72.468658 
	C3.366115,71.346275 5.732229,70.692551 8.539021,70.483597 
	C8.931785,85.618645 8.883872,100.308937 8.835958,114.999222 
z"/>
<path fill="#000000" opacity="1.000000" stroke="none" 
	d="
M27.531338,1.000000 
	C27.714365,1.652485 27.584215,2.724206 27.120388,2.896227 
	C15.091022,7.357606 6.999501,15.640080 2.694515,27.696850 
	C2.551145,28.098381 1.950546,28.336655 1.281538,28.325514 
	C1.000000,19.073568 1.000000,10.147137 1.000000,1.000000 
	C9.686316,1.000000 18.374496,1.000000 27.531338,1.000000 
z"/>
<path fill="#000000" opacity="1.000000" stroke="none" 
	d="
M230.468658,257.000000 
	C230.283585,256.347382 230.411499,255.274582 230.873459,255.103439 
	C242.908936,250.644745 250.994919,242.353470 255.304825,230.298019 
	C255.448166,229.897034 256.050201,229.660004 256.719208,229.673279 
	C257.000000,238.926437 257.000000,247.852859 257.000000,257.000000 
	C248.313675,257.000000 239.625504,257.000000 230.468658,257.000000 
z"/>
<path fill="#000000" opacity="1.000000" stroke="none" 
	d="
M1.000002,230.468658 
	C1.766652,230.567413 2.737414,230.988113 3.267514,231.725555 
	C7.336328,237.385971 11.319529,243.107956 15.665659,248.823303 
	C20.219217,251.370209 24.436434,253.904602 28.326824,256.719482 
	C19.073566,257.000000 10.147134,257.000000 1.000000,257.000000 
	C1.000000,248.313675 1.000000,239.625504 1.000002,230.468658 
z"/>
<path fill="#000000" opacity="1.000000" stroke="none" 
	d="
M257.000000,27.531338 
	C256.347839,27.714657 255.276535,27.584705 255.104736,27.121284 
	C250.644318,15.089718 242.358200,7.000853 230.301941,2.694519 
	C229.900574,2.551154 229.662598,1.950324 229.674225,1.281368 
	C238.926437,1.000000 247.852859,1.000000 257.000000,1.000000 
	C257.000000,9.686316 257.000000,18.374496 257.000000,27.531338 
z"/>
<path fill="#000101" opacity="1.000000" stroke="none" 
	d="
M8.909546,115.462822 
	C8.883872,100.308937 8.931785,85.618645 8.907037,70.464737 
	C8.890303,60.370808 8.921917,50.740292 9.007380,41.110256 
	C9.169409,22.852549 22.958115,9.086907 41.298981,9.019562 
	C63.557159,8.937831 85.815826,8.989199 108.537903,8.908920 
	C135.025024,8.883743 161.048523,8.932626 187.535645,8.908615 
	C197.446701,8.891349 206.894165,8.944932 216.341583,9.003038 
	C234.629379,9.115517 248.104630,21.975159 249.081177,40.583992 
	C249.115372,73.692657 249.067352,106.382790 249.092957,139.536499 
	C249.110855,164.940247 249.048965,189.880432 249.001373,214.820633 
	C248.961349,235.786774 235.741043,248.986954 214.725983,248.997223 
	C184.793091,249.011841 154.860214,249.011627 124.463722,249.091064 
	C96.679298,249.109436 69.358368,248.991440 42.037701,249.035568 
	C33.110176,249.049973 25.373062,246.386627 18.640003,240.000702 
	C11.377197,232.408676 8.559725,223.625992 8.906403,213.409775 
	C9.307317,201.595306 8.988318,189.756409 8.909130,177.464478 
	C8.885296,156.642715 8.934214,136.284561 8.909546,115.462822 
M33.014606,135.922592 
	C33.064232,143.279907 33.113857,150.637222 33.012569,158.921738 
	C33.012569,166.517471 33.012569,174.113190 33.012569,181.825974 
	C41.728485,181.825974 49.857231,181.825974 58.914276,181.979904 
	C67.274628,181.930130 75.634972,181.880356 84.922600,181.978745 
	C92.942482,181.928879 100.962357,181.879013 109.910088,181.986404 
	C118.271843,181.934692 126.633591,181.882996 135.923615,181.973724 
	C148.171707,181.973724 160.419785,181.973724 172.831390,181.973724 
	C172.831390,172.571640 172.831390,163.783112 172.964294,154.154724 
	C172.969803,152.737091 172.975327,151.319458 173.697281,149.922562 
	C175.881882,151.249557 178.066498,152.576553 180.591644,154.110397 
	C180.591644,138.297989 180.591644,123.184029 180.814896,107.339790 
	C180.905502,105.469856 180.636917,104.199837 178.393753,105.700905 
	C176.789536,106.774399 175.114548,107.742142 173.197342,108.926170 
	C173.059784,106.271538 172.949020,104.133804 172.963425,101.066689 
	C172.963425,92.802185 172.963425,84.537682 172.963425,76.166138 
	C166.595901,76.166138 160.794724,76.166138 154.066040,76.028030 
	C142.375641,76.074348 130.685242,76.120659 118.067543,76.026077 
	C107.376900,76.073059 96.686249,76.120049 85.068550,76.023857 
	C67.803307,76.023857 50.538071,76.023857 33.166714,76.023857 
	C33.166714,88.723534 33.166714,100.859657 33.016335,113.922844 
	C33.066013,120.947075 33.115688,127.971298 33.014606,135.922592 
M224.161636,171.443176 
	C224.161636,183.015427 224.161636,183.015427 231.697128,185.221771 
	C231.697128,147.963455 231.697128,110.705124 231.697128,73.139000 
	C226.490692,74.904549 223.891098,77.327522 223.978210,83.466385 
	C224.389603,112.458824 224.161636,141.460342 224.161636,171.443176 
M214.030304,152.499908 
	C214.030304,129.779419 214.030304,107.058929 214.030304,83.956520 
	C208.860138,85.963684 206.354858,88.398132 206.467392,94.282959 
	C206.912598,117.565323 206.891891,140.865463 206.482712,164.149155 
	C206.378586,170.073853 208.638168,172.879517 214.030304,174.687897 
	C214.030304,167.415329 214.030304,160.457550 214.030304,152.499908 
M188.892654,106.628647 
	C188.892654,122.428764 189.195419,138.237717 188.734512,154.024384 
	C188.564743,159.839523 191.085068,162.261383 195.877625,163.813705 
	C195.877625,140.891922 195.877625,118.230446 195.877625,95.477066 
	C190.380371,96.996811 187.783676,100.113594 188.892654,106.628647 
z"/>
<path fill="#20E5E6" opacity="1.000000" stroke="none" 
	d="
M224.161636,170.950897 
	C224.161636,141.460342 224.389603,112.458824 223.978210,83.466385 
	C223.891098,77.327522 226.490692,74.904549 231.697128,73.139000 
	C231.697128,110.705124 231.697128,147.963455 231.693695,185.221939 
	C224.161636,183.015427 224.161636,183.015427 224.161636,170.950897 
z"/>
<path fill="#21F2F3" opacity="1.000000" stroke="none" 
	d="
M180.591644,108.070084 
	C180.591644,123.184029 180.591644,138.297989 180.591644,154.110397 
	C178.066498,152.576553 175.881882,151.249557 173.203888,149.618439 
	C170.869827,148.190506 169.029160,147.066711 167.026855,145.637909 
	C159.616486,140.317566 152.367752,135.302231 145.498993,130.161621 
	C150.551468,126.889099 155.147125,123.619583 159.914780,120.623787 
	C166.741196,116.334366 173.693253,112.244919 180.591644,108.070084 
z"/>
<path fill="#22F5F6" opacity="1.000000" stroke="none" 
	d="
M214.030304,152.999847 
	C214.030304,160.457550 214.030304,167.415329 214.030304,174.687897 
	C208.638168,172.879517 206.378586,170.073853 206.482712,164.149155 
	C206.891891,140.865463 206.912598,117.565323 206.467392,94.282959 
	C206.354858,88.398132 208.860138,85.963684 214.030304,83.956520 
	C214.030304,107.058929 214.030304,129.779419 214.030304,152.999847 
z"/>
<path fill="#4ECAFD" opacity="1.000000" stroke="none" 
	d="
M33.166714,112.995773 
	C33.166714,100.859657 33.166714,88.723534 33.166714,76.023857 
	C50.538071,76.023857 67.803307,76.023857 85.462326,76.432785 
	C85.238419,78.559715 84.620735,80.277718 83.534042,81.997223 
	C70.610504,81.999062 58.155636,81.955109 45.701763,82.046638 
	C43.795170,82.060646 41.893169,82.700073 39.728611,83.367256 
	C39.297024,93.121941 39.125874,102.559616 38.584908,112.013000 
	C36.532299,112.351059 34.849506,112.673416 33.166714,112.995773 
z"/>
<path fill="#22F5F6" opacity="1.000000" stroke="none" 
	d="
M188.892654,106.150330 
	C187.783676,100.113594 190.380371,96.996811 195.877625,95.477066 
	C195.877625,118.230446 195.877625,140.891922 195.877625,163.813705 
	C191.085068,162.261383 188.564743,159.839523 188.734512,154.024384 
	C189.195419,138.237717 188.892654,122.428764 188.892654,106.150330 
z"/>
<path fill="#14BAA6" opacity="1.000000" stroke="none" 
	d="
M172.831390,154.994583 
	C172.831390,163.783112 172.831390,172.571640 172.831390,181.973724 
	C160.419785,181.973724 148.171707,181.973724 135.524078,181.582016 
	C136.084564,179.513077 137.044586,177.835846 138.470535,176.106628 
	C147.844986,175.991028 156.753479,175.927399 166.106873,175.799835 
	C166.757629,169.155502 166.963501,162.575134 167.530838,155.979340 
	C169.538666,155.640808 171.185028,155.317703 172.831390,154.994583 
z"/>
<path fill="#3EC5E4" opacity="1.000000" stroke="none" 
	d="
M57.985977,181.825974 
	C49.857231,181.825974 41.728485,181.825974 33.012569,181.825974 
	C33.012569,174.113190 33.012569,166.517471 33.424015,158.390198 
	C35.541645,157.241394 37.247829,156.624115 38.967949,156.474350 
	C38.987267,159.419754 38.845158,161.908813 39.032097,164.372940 
	C39.323074,168.208496 39.837627,172.027100 40.702278,175.894363 
	C47.760799,176.009903 54.374466,176.083969 60.926010,176.479095 
	C59.904579,178.475403 58.945278,180.150696 57.985977,181.825974 
z"/>
<path fill="#3EC5E4" opacity="1.000000" stroke="none" 
	d="
M154.993546,76.166138 
	C160.794724,76.166138 166.595901,76.166138 172.963425,76.166138 
	C172.963425,84.537682 172.963425,92.802185 172.570770,101.602654 
	C170.506607,102.757713 168.835083,103.376816 167.101532,103.530624 
	C167.028717,97.424316 167.106552,91.780441 166.924316,86.144966 
	C166.892059,85.147278 165.776031,84.184631 164.839294,82.924850 
	C160.350327,82.420219 156.182510,82.196548 152.067963,81.642090 
	C153.078674,79.596252 154.036102,77.881195 154.993546,76.166138 
z"/>
<path fill="#44C8EE" opacity="1.000000" stroke="none" 
	d="
M154.529785,76.097084 
	C154.036102,77.881195 153.078674,79.596252 151.597748,81.652252 
	C139.385498,81.991753 127.696732,81.990303 116.061905,81.657074 
	C117.075516,79.605850 118.035179,77.886414 118.994843,76.166977 
	C130.685242,76.120659 142.375641,76.074348 154.529785,76.097084 
z"/>
<path fill="#4AC9F7" opacity="1.000000" stroke="none" 
	d="
M118.531189,76.096527 
	C118.035179,77.886414 117.075516,79.605850 115.592361,81.661278 
	C104.713600,81.996750 94.358330,81.996239 84.003052,81.995728 
	C84.620735,80.277718 85.238419,78.559715 85.925850,76.504372 
	C96.686249,76.120049 107.376900,76.073059 118.531189,76.096527 
z"/>
<path fill="#33C3D5" opacity="1.000000" stroke="none" 
	d="
M58.450127,181.902939 
	C58.945278,180.150696 59.904579,178.475403 61.393383,176.425171 
	C70.281853,176.082565 78.640823,176.114899 86.937820,176.469620 
	C85.915665,178.471512 84.955490,180.151047 83.995316,181.830582 
	C75.634972,181.880356 67.274628,181.930130 58.450127,181.902939 
z"/>
<path fill="#1ABCAE" opacity="1.000000" stroke="none" 
	d="
M138.004593,176.158600 
	C137.044586,177.835846 136.084564,179.513077 135.059937,181.510803 
	C126.633591,181.882996 118.271843,181.934692 109.513527,181.587189 
	C110.082588,179.508682 111.048218,177.829361 112.479439,176.103973 
	C121.298218,176.091461 129.651398,176.125031 138.004593,176.158600 
z"/>
<path fill="#27C0CB" opacity="1.000000" stroke="none" 
	d="
M112.013840,176.150055 
	C111.048218,177.829361 110.082588,179.508682 109.049606,181.508560 
	C100.962357,181.879013 92.942482,181.928879 84.458954,181.904663 
	C84.955490,180.151047 85.915665,178.471512 87.404037,176.417908 
	C95.959435,176.079239 103.986641,176.114639 112.013840,176.150055 
z"/>
<path fill="#27C0CB" opacity="1.000000" stroke="none" 
	d="
M167.163574,103.995918 
	C168.835083,103.376816 170.506607,102.757713 172.508179,102.067345 
	C172.949020,104.133804 173.059784,106.271538 173.197342,108.926170 
	C175.114548,107.742142 176.789536,106.774399 178.393753,105.700905 
	C180.636917,104.199837 180.905502,105.469856 180.703278,107.704941 
	C173.693253,112.244919 166.741196,116.334366 159.914780,120.623787 
	C155.147125,123.619583 150.551468,126.889099 145.199432,130.069885 
	C145.069870,129.180603 145.404968,127.955734 146.206024,127.385841 
	C150.250198,124.508652 154.210098,121.406754 158.587570,119.129562 
	C164.914597,115.838188 168.468246,111.406067 167.163574,103.995918 
z"/>
<path fill="#44C8EE" opacity="1.000000" stroke="none" 
	d="
M38.954010,156.006836 
	C37.247829,156.624115 35.541645,157.241394 33.499474,157.926605 
	C33.113857,150.637222 33.064232,143.279907 33.458420,135.442535 
	C35.587048,134.641556 37.271862,134.320633 38.970764,134.468170 
	C38.974567,141.960037 38.964291,148.983429 38.954010,156.006836 
z"/>
<path fill="#4AC9F7" opacity="1.000000" stroke="none" 
	d="
M38.956680,133.999710 
	C37.271862,134.320633 35.587048,134.641556 33.533798,134.979004 
	C33.115688,127.971298 33.066013,120.947075 33.091522,113.459305 
	C34.849506,112.673416 36.532299,112.351059 38.600281,112.481689 
	C38.975872,119.956352 38.966278,126.978035 38.956680,133.999710 
z"/>
<path fill="#1ABCAE" opacity="1.000000" stroke="none" 
	d="
M172.897842,154.574646 
	C171.185028,155.317703 169.538666,155.640808 167.464935,155.527679 
	C167.087875,152.041931 167.138184,148.992416 167.188507,145.942917 
	C169.029160,147.066711 170.869827,148.190506 172.845673,149.608063 
	C172.975327,151.319458 172.969803,152.737091 172.897842,154.574646 
z"/>
<path fill="#010202" opacity="1.000000" stroke="none" 
	d="
M167.026855,145.637909 
	C167.138184,148.992416 167.087875,152.041931 167.103470,155.543091 
	C166.963501,162.575134 166.757629,169.155502 165.948059,175.538513 
	C144.635208,160.194504 123.926064,145.047867 103.196930,129.710373 
	C103.176933,129.519531 103.157860,129.136230 103.471024,129.011139 
	C105.380188,127.702919 106.978264,126.522583 108.571854,125.336235 
	C127.435112,111.293266 146.297699,97.249428 165.160461,83.205811 
	C165.776031,84.184631 166.892059,85.147278 166.924316,86.144966 
	C167.106552,91.780441 167.028717,97.424316 167.101532,103.530624 
	C168.468246,111.406067 164.914597,115.838188 158.587570,119.129562 
	C154.210098,121.406754 150.250198,124.508652 146.206024,127.385841 
	C145.404968,127.955734 145.069870,129.180603 144.819473,130.195160 
	C152.367752,135.302231 159.616486,140.317566 167.026855,145.637909 
z"/>
<path fill="#55CFFC" opacity="1.000000" stroke="none" 
	d="
M164.839294,82.924850 
	C146.297699,97.249428 127.435112,111.293266 108.571854,125.336235 
	C106.978264,126.522583 105.380188,127.702919 103.154144,128.852295 
	C97.418282,125.145737 92.282524,121.513710 87.212227,117.792488 
	C71.457817,106.229935 55.728249,94.633530 39.989048,83.050247 
	C41.893169,82.700073 43.795170,82.060646 45.701763,82.046638 
	C58.155636,81.955109 70.610504,81.999062 83.534042,81.997223 
	C94.358330,81.996239 104.713600,81.996750 115.538422,81.993057 
	C127.696732,81.990303 139.385498,81.991753 151.544479,81.983032 
	C156.182510,82.196548 160.350327,82.420219 164.839294,82.924850 
z"/>
<path fill="#41A1FB" opacity="1.000000" stroke="none" 
	d="
M39.728611,83.367264 
	C55.728249,94.633530 71.457817,106.229935 87.212227,117.792488 
	C92.282524,121.513710 97.418282,125.145737 102.840981,128.977386 
	C103.157860,129.136230 103.176933,129.519531 102.861115,129.829758 
	C81.782677,145.377609 61.020050,160.615250 40.257423,175.852890 
	C39.837627,172.027100 39.323074,168.208496 39.032097,164.372940 
	C38.845158,161.908813 38.987267,159.419754 38.967949,156.474350 
	C38.964291,148.983429 38.974567,141.960037 38.970764,134.468170 
	C38.966278,126.978035 38.975872,119.956352 38.970093,112.465988 
	C39.125874,102.559616 39.297024,93.121941 39.728611,83.367264 
z"/>
<path fill="#015EF6" opacity="1.000000" stroke="none" 
	d="
M40.702278,175.894363 
	C61.020050,160.615250 81.782677,145.377609 102.881111,130.020599 
	C123.926064,145.047867 144.635208,160.194504 165.503174,175.602463 
	C156.753479,175.927399 147.844986,175.991028 138.470535,176.106628 
	C129.651398,176.125031 121.298218,176.091461 112.479431,176.103973 
	C103.986641,176.114639 95.959435,176.079239 87.466019,176.095535 
	C78.640823,176.114899 70.281853,176.082565 61.455513,176.104141 
	C54.374466,176.083969 47.760799,176.009903 40.702278,175.894363 
z"/>
</svg>